<svg fill="none" height="16" viewBox="0 0 16 16" width="16" xmlns="http://www.w3.org/2000/svg"><g fill="#212121"><path d="m5.08496 4c.20592-.5826.76154-1 1.41465-1h3.5c1.65689 0 2.99999 1.34315 2.99999 3v3.5c0 .6531-.4174 1.2087-1 1.4146v-4.9146c0-1.10457-.8954-2-1.99999-2z"/><path d="m4.5 5h5c.8284 0 1.5.67157 1.5 1.5v5c0 .8284-.6716 1.5-1.5 1.5h-5c-.82843 0-1.5-.6716-1.5-1.5v-5c0-.82843.67157-1.5 1.5-1.5zm0 1c-.27614 0-.5.22386-.5.5v5c0 .2761.22386.5.5.5h5c.27614 0 .5-.2239.5-.5v-5c0-.27614-.22386-.5-.5-.5z"/></g></svg>